# xmcd
#
# Track frame offsets:
#	8928
#	23586
#	41848
#	63654
#	87413
#	101064
#	118225
#	140660
#	153976
#	181688
#
# Disc length: 2664 seconds
#
# Revision: 0
# Processed by: cddbd v1.5.1PL2 Copyright (c) Steve Scherf et al.
# Submitted via: EasyCDDAExtractor 5.0.4.1
#
DISCID=9009f10a
DTITLE=The Milroys
DYEAR=2006
DGENRE=Ballad
TTITLE0=My Favorite Heartache
TTITLE1=The Marryin' Kind
TTITLE2=Silver Bullet
TTITLE3=The Good News Gospel Hour
TTITLE4=I'm Not Going To The Jailhouse Over You
TTITLE5=Hallelujah Time
TTITLE6=The Way Of The Outlaw
TTITLE7=The Heart Of Johnnie Bellefontaine
TTITLE8=Nancy Derringer
TTITLE9=Cowboy Song
EXTD=
EXTT0=
EXTT1=
EXTT2=
EXTT3=
EXTT4=
EXTT5=
EXTT6=
EXTT7=
EXTT8=
EXTT9=
PLAYORDER=
